<svg width="338" height="120" viewBox="0 0 338 120" fill="none" xmlns="http://www.w3.org/2000/svg">
<path d="M196.176 72.012V54.612L208.704 72.012H213.193V48.012H209.052V65.4L196.419 48.012H192V72.012H196.176Z" fill="#021205"/>
<path d="M241.576 53.742H241.68V72.012H245.856V48.012H239.697L232.702 67.2792L225.603 48.012H219.374V72.012H223.55V53.742L230.336 72.0468H234.894L241.576 53.742Z" fill="#021205"/>
<path d="M252.049 48.012V72.012H256.26V64.7388L259.844 60.876L266.909 72.012H271.92L262.767 57.5352L270.98 48.012H265.656L259.496 55.4472L256.26 59.5188V48.012H252.049Z" fill="#021205"/>
<path d="M293.794 55.2384C293.794 49.8096 290.279 48 285.373 48L275.107 48.012V72.012H279.317V62.5464H284.746L289.409 72.012H294.038V71.7684L288.992 62.0244C291.741 61.224 293.794 59.0664 293.794 55.2384ZM279.317 51.5496H285.373C287.983 51.5496 289.514 52.8372 289.514 55.2732C289.514 57.7092 287.913 58.9968 285.373 58.9968H279.317V51.5496Z" fill="#021205"/>
<path d="M160 58V48H182V58H178V61L172 58V61L166 58V61L160 58Z" fill="#021205"/>
<path d="M160 68V72H182V68H160Z" fill="#021205"/>
<path d="M43.7515 47.9673V72H45.5278V68.1687C46.921 71.3731 49.7074 72.418 52.1107 72.418C56.8127 72.418 59.8081 69.2833 59.8081 62.979C59.8081 56.64 56.8127 53.4704 52.1107 53.4704C49.7771 53.4704 47.0255 54.6547 45.5975 57.5804V47.9673H43.7515ZM51.832 70.8506C48.0704 70.8506 45.5278 68.2035 45.5278 62.979C45.5278 57.7894 48.0704 55.0378 51.832 55.0378C56.0465 55.0378 57.8576 58.4163 57.8576 63.0139C57.8576 67.6114 56.0116 70.8506 51.832 70.8506Z" fill="#021205"/>
<path d="M70.2176 72.418C74.5366 72.418 77.4623 70.0147 77.4623 65.8003V53.8884H75.6163V65.7654C75.6163 68.517 73.7355 70.8158 70.2176 70.8158C66.6998 70.8158 64.819 68.517 64.819 65.7654V53.8884H62.973V65.8003C62.973 70.0147 65.9335 72.418 70.2176 72.418Z" fill="#021205"/>
<path d="M83.5077 53.8884H81.6617V72H83.5077V53.8884ZM83.6122 47.9673H81.5573V50.5447H83.6122V47.9673Z" fill="#021205"/>
<path d="M89.9839 72V47.9673H88.1379V72H89.9839Z" fill="#021205"/>
<path d="M92.2375 53.8884V55.4558H95.9992V68.3777C95.9992 71.582 97.6014 72.418 99.935 72.418C100.841 72.418 102.617 72.209 103.522 71.8955L103.244 70.2585C102.269 70.6068 101.119 70.8506 100.353 70.8506C98.7159 70.8506 97.8452 70.2237 97.8452 68.1339V55.4558H104.045V53.8884H97.8452V49.3953H95.9992V53.8884H92.2375Z" fill="#021205"/>
<path d="M130.38 62.9442C130.38 56.849 126.897 53.4704 121.707 53.4704C116.517 53.4704 113.034 56.849 113.034 62.9442C113.034 69.0395 116.517 72.418 121.707 72.418C126.897 72.418 130.38 69.0395 130.38 62.9442ZM114.985 62.9442C114.985 58.1725 117.493 55.0726 121.707 55.0726C125.921 55.0726 128.429 58.1725 128.429 62.9442C128.429 67.6811 125.921 70.8158 121.707 70.8158C117.493 70.8158 114.985 67.6811 114.985 62.9442Z" fill="#021205"/>
<path d="M133.716 53.8884V72H135.562V61.4813C135.562 58.5208 137.269 55.0726 141.727 55.0726C145.175 55.0726 146.603 57.0928 146.603 60.0185V72H148.449V59.914C148.449 55.7692 146.011 53.4704 142.075 53.4704C139.394 53.4704 136.677 54.5153 135.597 57.1624H135.458V53.8884H133.716Z" fill="#021205"/>
</svg>
